# xmcd
#
# Track frame offsets: 
#        150
#        18672
#        50153
#
# Disc length: 1149 seconds
#
# Revision: 0
# Processed by: cddbd v1.5.2PL0 Copyright (c) Steve Scherf et al.
# Submitted via: ExactAudioCopy v0.99pb5
#
DISCID=24047b03
DTITLE=Mariah Carey - Obsessed
DYEAR=2009
DGENRE=R&B
TTITLE0=Obsessed (Main)
TTITLE1=Obsessed (Remix) (Feat. Gucci Mane)
TTITLE2=Video
EXTD=
EXTT0=
EXTT1=
EXTT2=
PLAYORDER=
